<svg width="114" height="24" viewBox="0 0 114 24" fill="none" xmlns="http://www.w3.org/2000/svg">
<path d="M28.2846 17.7474C28.5974 16.8203 28.5974 15.1884 28.2846 14.4357C29.8467 15.7403 33.0849 16.5672 35.8215 16.5672C38.1253 16.5672 39.3018 15.9672 39.3018 14.8612C39.3018 11.4731 27.9974 15.5396 27.9974 9.36346C27.9974 5.37111 32.7977 5.04604 35.5323 5.04604C38.2669 5.04604 40.1182 5.49773 42.3983 6.15003C42.0875 7.0554 42.1111 8.03278 42.4692 9.49009C40.2396 8.29196 37.7954 7.66557 35.3178 7.65748C32.8941 7.65748 31.7648 8.15921 31.7648 9.36346C31.7648 13.0046 43.142 8.58469 43.142 14.9114C43.142 18.0507 40.4074 19.34 35.9415 19.34C33.2246 19.3291 30.2992 18.8273 28.2846 17.7474ZM45.1074 1.78241C45.1074 0.578164 45.9455 0 47.5784 0C49.3549 0 50.2677 0.578164 50.2677 1.78241C50.2677 2.98666 49.347 3.51463 47.5784 3.51463C45.9534 3.51463 45.1074 2.98666 45.1074 1.78241ZM49.6677 5.47147C49.3785 9.96788 49.3785 14.4815 49.6677 18.9779H45.5402C45.851 14.4824 45.851 9.967 45.5402 5.47147C46.9783 5.72454 48.2748 5.77472 49.6677 5.47147ZM52.8587 5.84897C54.6589 5.7508 56.2426 5.44747 57.2282 4.97188C56.8544 6.74553 56.6282 8.54756 56.5554 10.3627H56.8111C57.6748 7.34985 59.4513 5.01555 62.4771 5.01555C65.5029 5.01555 66.7246 7.29974 66.8682 9.91113H67.1181C67.7417 7.40009 69.8055 5.01555 72.7093 5.01555C75.7803 5.01555 77.2224 7.62688 77.2932 10.7902C77.3424 12.649 77.1751 16.2879 77.7024 18.9233H73.5002C73.6576 16.9708 73.7185 15.0117 73.6851 13.0504C73.6851 9.86088 72.7486 8.18105 70.5885 8.18105C68.3811 8.18105 67.2519 9.98966 67.2519 13.5021C67.2519 15.5113 67.3247 17.6187 67.5391 18.9233H63.2995C63.4667 16.9664 63.4667 15.0335 63.4667 13.0504C63.4667 9.93941 62.5794 8.18105 60.4901 8.18105C58.1863 8.18105 57.0354 10.1052 57.0354 13.4758C57.0354 15.3084 57.0354 17.1344 57.2282 18.9735L52.8587 18.9299C53.3388 14.5858 53.3388 10.193 52.8587 5.84897ZM96.8309 11.8505C96.8309 16.2181 93.8858 19.3793 89.3413 19.3793C87.4467 19.3793 85.4774 18.6267 84.3717 17.069C84.3757 19.3859 84.4976 21.6984 84.7396 24C83.2352 23.7826 81.7128 23.7658 80.2049 23.9498C80.7321 20.3589 80.7321 10.7947 80.2049 5.85549C81.8122 5.75514 83.636 5.45181 84.6688 4.9784C84.2879 6.56531 84.0311 8.18578 83.9015 9.82165H84.2124C85.1961 7.31716 87.3818 5.02647 90.6692 5.02647C94.238 5.02211 96.8309 7.78183 96.8309 11.8505ZM92.9415 12.0753C92.9415 9.51409 91.4542 7.78185 88.814 7.78185C85.1331 7.78185 84.3501 10.919 84.3501 13.6569V15.7142C85.3337 16.6872 86.644 17.2195 87.9975 17.1976C90.7341 17.1976 92.9415 15.4153 92.9415 12.0753ZM113.992 18.9779H109.552C109.935 17.4421 110.175 15.8691 110.27 14.2853H109.959C109.04 17.3657 106.815 19.2549 103.703 19.2549C100.103 19.2549 98.999 16.5934 98.999 13.4802C98.999 10.871 99.0934 7.98249 98.6606 5.7507C99.9845 5.79333 101.306 5.5982 102.574 5.17267V11.5974C102.574 14.3092 103.559 16.0676 105.792 16.0676C108.735 16.0676 109.821 13.9493 109.821 11.1219V5.7507C111.233 5.79189 112.641 5.59709 114 5.17267C113.439 9.11267 113.439 13.8075 113.992 18.9779ZM20.3955 4.33713H18.924L14.9656 9.23044L13.3091 4.33713H7.11002L0 13.1115L1.81389 18.9801H13.7754L18.436 13.0919L21.2061 9.66892L20.3955 4.33713ZM11.8356 13.0919H6.60636L9.10295 9.57731H14.6823L11.8356 13.0919Z" fill="#1D1D1F"/>
</svg>
