<svg width="91" height="18" viewBox="0 0 91 18" fill="none" xmlns="http://www.w3.org/2000/svg">
<path d="M1.58792 1.61996H4.67301V4.37235H6.89609V6.56518H4.67301V11.087C4.67301 12.0397 4.97547 12.2212 6.00383 12.2212H6.89609V14.4594H4.9301C2.4348 14.4594 1.58792 13.9755 1.58792 11.6314L1.58792 6.56518H0L0 4.37235H1.58792V1.61996ZM17.3612 11.3138C16.4538 13.7032 14.3366 14.7316 12.3252 14.7316C9.04356 14.7316 6.79023 12.7505 6.79023 9.37806C6.79023 6.14174 9.24016 4.10013 12.2043 4.10013C15.5616 4.10013 17.6183 6.6408 17.4066 10.2249H9.92069C10.0114 11.6616 11.1305 12.3119 12.2496 12.3119C13.4292 12.3119 14.1703 11.8885 14.5181 11.2987L17.3612 11.3138ZM9.96606 8.34969H14.3366C14.2761 7.07936 13.399 6.4442 12.2194 6.4442C11.1003 6.4442 10.1324 7.01887 9.96606 8.34969ZM28.0229 8.07748H25.1496C24.8773 6.89789 24.1363 6.48957 23.2289 6.48957C22.125 6.48957 21.0361 7.24571 21.0361 9.4083C21.0361 11.6011 22.125 12.327 23.2289 12.327C24.3632 12.327 25.0739 11.7372 25.3008 10.7694H28.1742C27.4785 13.7637 25.0588 14.7165 23.0323 14.7165C19.7053 14.7165 17.8754 12.5841 17.8754 9.36294C17.8754 6.14174 19.9775 4.08501 23.0323 4.08501C25.1193 4.08501 27.418 5.03776 28.0229 8.07748ZM31.6071 5.71829C32.0456 4.96214 33.1496 4.16063 34.7375 4.16063C37.3236 4.16063 38.1402 5.68805 38.1402 8.42531V14.4896H35.0551V9.21171C35.0551 7.77502 35.0098 6.59543 33.5126 6.59543C32.1818 6.59543 31.6222 7.45744 31.6222 9.34781V14.5199H28.5371V0.90918L31.6222 0.90918L31.6071 5.71829ZM45.248 7.35158C45.0363 6.59543 44.2499 6.3837 43.282 6.3837C42.2083 6.3837 41.679 6.64079 41.679 7.13985C41.679 7.60867 42.0419 7.88088 42.9191 8.04723L44.8095 8.37994C47.2291 8.81851 48.3936 9.54441 48.3936 11.3138C48.3936 13.5823 46.3066 14.7316 43.5089 14.7316C40.817 14.7316 38.9115 13.5974 38.5637 11.2079H41.437C41.7092 12.1758 42.4956 12.4783 43.5542 12.4783C44.6582 12.4783 45.4295 12.1758 45.4295 11.5709C45.4295 11.1323 45.0363 10.8299 43.8416 10.6333L42.0419 10.3308C40.0911 10.0132 38.7603 9.03023 38.7603 7.24572C38.7603 5.23436 40.8775 4.13038 43.3728 4.13038C45.6715 4.13038 47.7736 5.05288 48.1516 7.3667L45.248 7.35158ZM49.9815 1.61996H53.0666V4.37235H55.2897V6.56518H53.0666V11.087C53.0666 12.0397 53.3691 12.2212 54.3974 12.2212L55.2746 12.2212V14.4594L53.3237 14.4594C50.8284 14.4594 49.9815 13.9755 49.9815 11.6314V6.56518H48.3936V4.37235H49.9815V1.61996ZM62.337 7.77502C62.337 6.56518 61.7623 6.17198 60.6281 6.17198C59.63 6.17198 58.9646 6.68617 58.8285 7.65404H55.94C56.0912 5.74854 57.8909 4.06989 60.8852 4.06989C63.8039 4.06989 65.4524 5.24948 65.3919 8.31945L65.3465 10.5123V11.5709C65.3465 12.6749 65.4221 13.8696 65.5733 14.4896H62.5336L62.4882 13.2647C61.7321 14.3384 60.5374 14.7316 59.0856 14.7316C57.165 14.7316 55.5922 13.6125 55.5922 11.7675C55.5922 9.28732 58.3899 8.4858 62.3068 8.18334L62.337 7.77502ZM62.4277 9.99811C60.2652 10.2098 58.8285 10.4215 58.8285 11.5406C58.8285 12.1909 59.4485 12.6295 60.25 12.6295C61.4901 12.6295 62.4277 12.1002 62.4277 10.2401V9.99811ZM72.4694 7.35158C72.1972 7.30621 71.8948 7.27596 71.6225 7.29108C70.1254 7.29108 69.3541 7.83551 69.3541 9.4083V14.4745H66.2539V4.37235L69.2331 4.37235V6.29297C69.7019 5.08313 70.5488 4.37235 71.9855 4.31186H72.2123C72.3031 4.31186 72.3787 4.31185 72.4694 4.32698V7.35158ZM79.305 7.35158C79.0933 6.59543 78.3069 6.3837 77.339 6.3837C76.2653 6.3837 75.736 6.64079 75.736 7.13985C75.736 7.60867 76.0989 7.88088 76.9761 8.04723L78.8513 8.37994C81.271 8.81851 82.4355 9.54441 82.4355 11.3138C82.4355 13.5823 80.3485 14.7316 77.5508 14.7316C74.874 14.7316 72.9534 13.5974 72.6055 11.2079H75.4789C75.7511 12.1758 76.5375 12.4783 77.5961 12.4783C78.7001 12.4783 79.4714 12.1758 79.4714 11.5709C79.4714 11.1323 79.0782 10.8299 77.8835 10.6333L76.0838 10.3308C74.1329 10.0132 72.8173 9.03023 72.8173 7.24572C72.8173 5.23436 74.9345 4.13038 77.4298 4.13038C79.7285 4.13038 81.8306 5.05288 82.2086 7.3667L79.305 7.35158Z" fill="black"/>
<path d="M82.375 17.0908V14.4896H90.7229V17.0908H82.375Z" fill="#39C463"/>
</svg>
