<svg width="24" height="24" viewBox="0 0 24 24" fill="none" xmlns="http://www.w3.org/2000/svg">
<path d="M21.5984 6.63608C20.8917 6.95725 20.13 7.16831 19.3407 7.26925C20.1483 6.7829 20.7724 6.01208 21.0661 5.08525C20.3044 5.54408 19.46 5.86525 18.5698 6.04878C17.8447 5.2596 16.826 4.80078 15.6696 4.80078C13.5128 4.80078 11.7506 6.56266 11.7506 8.73749C11.7506 9.04949 11.7873 9.35231 11.8516 9.63678C8.58429 9.47161 5.67492 7.90243 3.7384 5.52572C3.39882 6.10384 3.20609 6.7829 3.20609 7.49866C3.20609 8.86596 3.89442 10.0773 4.95905 10.7655C4.30742 10.7655 3.70169 10.582 3.16937 10.3067V10.3342C3.16937 12.2429 4.52769 13.8396 6.32655 14.1975C5.74901 14.3555 5.14269 14.3775 4.55523 14.2617C4.8045 15.044 5.2927 15.7285 5.95119 16.219C6.60968 16.7095 7.40535 16.9813 8.22635 16.9963C6.83466 18.0979 5.10956 18.6933 3.33458 18.6848C3.02253 18.6848 2.71048 18.6664 2.39844 18.6297C4.14222 19.7493 6.21641 20.4008 8.43744 20.4008C15.6696 20.4008 19.6436 14.3994 19.6436 9.19631C19.6436 9.02196 19.6436 8.85678 19.6344 8.68243C20.4053 8.13184 21.0661 7.43443 21.5984 6.63608Z" fill="white"/>
</svg>
